<?xml version="1.0" standalone="no"?>
<!DOCTYPE svg PUBLIC "-//W3C//DTD SVG 20010904//EN"
 "http://www.w3.org/TR/2001/REC-SVG-20010904/DTD/svg10.dtd">
<svg version="1.0" xmlns="http://www.w3.org/2000/svg"
 width="1920.000000pt" height="1164.000000pt" viewBox="0 0 1920.000000 1164.000000"
 preserveAspectRatio="xMidYMid meet">
<metadata>
Created by potrace 1.16, written by Peter Selinger 2001-2019
</metadata>
<g transform="translate(0.000000,1164.000000) scale(0.100000,-0.100000)"
fill="#000000" stroke="none">
<path d="M13758 11339 c-133 -31 -295 -176 -776 -690 l-52 -56 573 -569 c314
-313 640 -636 722 -717 l151 -147 269 253 c287 269 412 402 452 481 33 64 56
179 48 236 -10 73 -44 167 -81 221 -84 125 -846 880 -945 937 -30 16 -78 37
-108 46 -59 17 -191 20 -253 5z"/>
<path d="M10373 8008 l-2281 -2281 301 -296 c876 -860 1119 -1096 1130 -1099
7 -1 266 253 577 565 310 313 1332 1336 2270 2276 l1705 1707 -450 447 c-247
246 -567 564 -710 705 l-260 258 -2282 -2282z"/>
<path d="M6270 10240 c-452 -5 -572 -10 -645 -23 -194 -35 -333 -81 -497 -162
-191 -95 -316 -184 -477 -340 -280 -270 -468 -611 -547 -990 -20 -96 -27 -168
-34 -360 -15 -406 -21 -3002 -11 -4735 8 -1406 12 -1660 25 -1751 136 -920
772 -1544 1706 -1671 140 -19 6460 -19 6600 0 607 83 1088 373 1401 846 150
227 244 472 302 781 l22 120 3 2798 c2 1954 -1 2798 -8 2795 -20 -6 -685 -665
-715 -708 l-30 -43 -6 -501 c-4 -276 -4 -1336 -2 -2356 5 -1702 4 -1864 -11
-1968 -23 -151 -57 -267 -116 -388 -159 -327 -445 -535 -841 -611 -89 -17
-224 -18 -2474 -18 -1309 0 -2744 -1 -3190 -3 -770 -3 -815 -2 -910 16 -258
51 -466 161 -646 341 -181 181 -288 380 -340 634 l-21 102 2 3155 c1 2663 3
3171 15 3255 77 541 402 895 933 1017 l97 22 2325 6 c2279 5 2326 5 2355 24
51 34 710 694 702 703 -5 4 -261 11 -570 14 -701 8 -3651 7 -4397 -1z"/>
<path d="M7611 4499 c-139 -506 -251 -922 -249 -924 7 -7 1848 511 1847 520
-1 10 -1323 1318 -1337 1323 -5 1 -122 -412 -261 -919z"/>
</g>
</svg>
